<svg xmlns="http://www.w3.org/2000/svg" width="179" height="457" fill="none"><g clip-path="url(#a)"><path fill="#272727" stroke="#7C7B77" d="M-530.5.5h749v19h-749z"/></g><path fill="#272727" d="M.078 20h178v437h-178z"/><path stroke="#FAF9F5" d="M5.078 20v437m6-437v437m6-437v437m6-437v437m6-437v437m6-437v437m6-437v437m6-437v437m6-437v437m6-437v437m6-437v437m6-437v437m6-437v437m6-437v437m6-437v437m6-437v437m6-437v437m6-437v437m6-437v437m6-437v437m6-437v437m6-437v437m6-437v437m6-437v437m6-437v437m6-437v437m6-437v437m6-437v437m6-437v437" opacity=".1"/><path fill="#4F4F4D" d="M169.078 49.133h-4V107.4h4z"/><path fill="#3E77E8" d="M169.078 319.657h-4v118.614h4z"/><path fill="#4F4F4D" d="M145.078 300.929h-4v35.376h4zm12-260.119h-4v206.014h4z"/><defs><clipPath id="a"><path fill="#fff" d="M0 0h178v20H0z"/></clipPath></defs></svg>