<svg xmlns="http://www.w3.org/2000/svg" width="1380" height="340" viewBox="0 0 1380 340" fill="none"><g fill="#272727" transform="translate(18.00 311.91) scale(0.41987 -0.41987)"><g transform="translate(0 0.00)"><path d="M0 700V0H582V417H462L364 700ZM143 283H439V134H143ZM143 566H266L318 417H143Z" transform="translate(0.00 0)"/><path d="M0 700V0H499V134H143V700Z" transform="translate(668.00 0)"/><path d="M143 700 0 283V0H143V193H437V0H580V283L437 700ZM241 566H340L422 327H159Z" transform="translate(1253.00 0)"/><path d="M0 699V0H482L580 283L436 699ZM143 566H339L436 283L385 134H143Z" transform="translate(1919.00 0)"/><path d="M0 700V0H560V134H143V283H363V417H143V566H560V700Z" transform="translate(2585.00 0)"/></g></g></svg>